<svg xmlns="http://www.w3.org/2000/svg" xmlns:xlink="http://www.w3.org/1999/xlink" version="1.1" class="marks" width="509" height="242" viewBox="0 0 509 242"><rect width="509" height="242" fill="white"/><g fill="none" stroke-miterlimit="10" transform="translate(50,5)"><g class="mark-group role-frame root" role="graphics-object" aria-roledescription="group mark container"><g transform="translate(0,0)"><path class="background" aria-hidden="true" d="M0.5,0.5h300v200h-300Z" stroke="#ddd"/><g><g class="mark-group role-axis" aria-hidden="true"><g transform="translate(0.5,200.5)"><path class="background" aria-hidden="true" d="M0,0h0v0h0Z" pointer-events="none"/><g><g class="mark-rule role-axis-grid" pointer-events="none"><line transform="translate(0,-200)" x2="0" y2="200" stroke="#ddd" stroke-width="1" opacity="1"/><line transform="translate(30,-200)" x2="0" y2="200" stroke="#ddd" stroke-width="1" opacity="1"/><line transform="translate(60,-200)" x2="0" y2="200" stroke="#ddd" stroke-width="1" opacity="1"/><line transform="translate(90,-200)" x2="0" y2="200" stroke="#ddd" stroke-width="1" opacity="1"/><line transform="translate(120,-200)" x2="0" y2="200" stroke="#ddd" stroke-width="1" opacity="1"/><line transform="translate(150,-200)" x2="0" y2="200" stroke="#ddd" stroke-width="1" opacity="1"/><line transform="translate(180,-200)" x2="0" y2="200" stroke="#ddd" stroke-width="1" opacity="1"/><line transform="translate(210,-200)" x2="0" y2="200" stroke="#ddd" stroke-width="1" opacity="1"/><line transform="translate(240,-200)" x2="0" y2="200" stroke="#ddd" stroke-width="1" opacity="1"/><line transform="translate(270,-200)" x2="0" y2="200" stroke="#ddd" stroke-width="1" opacity="1"/><line transform="translate(300,-200)" x2="0" y2="200" stroke="#ddd" stroke-width="1" opacity="1"/></g></g><path class="foreground" aria-hidden="true" d="" pointer-events="none" display="none"/></g></g><g class="mark-group role-axis" aria-hidden="true"><g transform="translate(0.5,0.5)"><path class="background" aria-hidden="true" d="M0,0h0v0h0Z" pointer-events="none"/><g><g class="mark-rule role-axis-grid" pointer-events="none"><line transform="translate(0,185)" x2="300" y2="0" stroke="#ddd" stroke-width="1" opacity="1"/><line transform="translate(0,146)" x2="300" y2="0" stroke="#ddd" stroke-width="1" opacity="1"/><line transform="translate(0,108)" x2="300" y2="0" stroke="#ddd" stroke-width="1" opacity="1"/><line transform="translate(0,69)" x2="300" y2="0" stroke="#ddd" stroke-width="1" opacity="1"/><line transform="translate(0,31)" x2="300" y2="0" stroke="#ddd" stroke-width="1" opacity="1"/></g></g><path class="foreground" aria-hidden="true" d="" pointer-events="none" display="none"/></g></g><g class="mark-group role-axis" role="graphics-symbol" aria-roledescription="axis" aria-label="X-axis titled 'Distance (m)' for a linear scale with values from 0 to 20"><g transform="translate(0.5,200.5)"><path class="background" aria-hidden="true" d="M0,0h0v0h0Z" pointer-events="none"/><g><g class="mark-rule role-axis-tick" pointer-events="none"><line transform="translate(0,0)" x2="0" y2="5" stroke="#888" stroke-width="1" opacity="1"/><line transform="translate(30,0)" x2="0" y2="5" stroke="#888" stroke-width="1" opacity="1"/><line transform="translate(60,0)" x2="0" y2="5" stroke="#888" stroke-width="1" opacity="1"/><line transform="translate(90,0)" x2="0" y2="5" stroke="#888" stroke-width="1" opacity="1"/><line transform="translate(120,0)" x2="0" y2="5" stroke="#888" stroke-width="1" opacity="1"/><line transform="translate(150,0)" x2="0" y2="5" stroke="#888" stroke-width="1" opacity="1"/><line transform="translate(180,0)" x2="0" y2="5" stroke="#888" stroke-width="1" opacity="1"/><line transform="translate(210,0)" x2="0" y2="5" stroke="#888" stroke-width="1" opacity="1"/><line transform="translate(240,0)" x2="0" y2="5" stroke="#888" stroke-width="1" opacity="1"/><line transform="translate(270,0)" x2="0" y2="5" stroke="#888" stroke-width="1" opacity="1"/><line transform="translate(300,0)" x2="0" y2="5" stroke="#888" stroke-width="1" opacity="1"/></g><g class="mark-text role-axis-label" pointer-events="none"><text text-anchor="start" transform="translate(0,15)" font-family="sans-serif" font-size="10px" fill="#000" opacity="1">0</text><text text-anchor="middle" transform="translate(30,15)" font-family="sans-serif" font-size="10px" fill="#000" opacity="1">2</text><text text-anchor="middle" transform="translate(60,15)" font-family="sans-serif" font-size="10px" fill="#000" opacity="1">4</text><text text-anchor="middle" transform="translate(90,15)" font-family="sans-serif" font-size="10px" fill="#000" opacity="1">6</text><text text-anchor="middle" transform="translate(120,15)" font-family="sans-serif" font-size="10px" fill="#000" opacity="1">8</text><text text-anchor="middle" transform="translate(150,15)" font-family="sans-serif" font-size="10px" fill="#000" opacity="1">10</text><text text-anchor="middle" transform="translate(180,15)" font-family="sans-serif" font-size="10px" fill="#000" opacity="1">12</text><text text-anchor="middle" transform="translate(210,15)" font-family="sans-serif" font-size="10px" fill="#000" opacity="1">14</text><text text-anchor="middle" transform="translate(240,15)" font-family="sans-serif" font-size="10px" fill="#000" opacity="1">16</text><text text-anchor="middle" transform="translate(270,15)" font-family="sans-serif" font-size="10px" fill="#000" opacity="1">18</text><text text-anchor="end" transform="translate(300,15)" font-family="sans-serif" font-size="10px" fill="#000" opacity="1">20</text></g><g class="mark-rule role-axis-domain" pointer-events="none"><line transform="translate(0,0)" x2="300" y2="0" stroke="#888" stroke-width="1" opacity="1"/></g><g class="mark-text role-axis-title" pointer-events="none"><text text-anchor="middle" transform="translate(150,30)" font-family="sans-serif" font-size="11px" font-weight="bold" fill="#000" opacity="1">Distance (m)</text></g></g><path class="foreground" aria-hidden="true" d="" pointer-events="none" display="none"/></g></g><g class="mark-group role-axis" role="graphics-symbol" aria-roledescription="axis" aria-label="Y-axis titled 'Path loss (dBm)' for a linear scale with values from −142 to −116"><g transform="translate(0.5,0.5)"><path class="background" aria-hidden="true" d="M0,0h0v0h0Z" pointer-events="none"/><g><g class="mark-rule role-axis-tick" pointer-events="none"><line transform="translate(0,185)" x2="-5" y2="0" stroke="#888" stroke-width="1" opacity="1"/><line transform="translate(0,146)" x2="-5" y2="0" stroke="#888" stroke-width="1" opacity="1"/><line transform="translate(0,108)" x2="-5" y2="0" stroke="#888" stroke-width="1" opacity="1"/><line transform="translate(0,69)" x2="-5" y2="0" stroke="#888" stroke-width="1" opacity="1"/><line transform="translate(0,31)" x2="-5" y2="0" stroke="#888" stroke-width="1" opacity="1"/></g><g class="mark-text role-axis-label" pointer-events="none"><text text-anchor="end" transform="translate(-7,187.6153846153846)" font-family="sans-serif" font-size="10px" fill="#000" opacity="1">−140</text><text text-anchor="end" transform="translate(-7,149.15384615384616)" font-family="sans-serif" font-size="10px" fill="#000" opacity="1">−135</text><text text-anchor="end" transform="translate(-7,110.6923076923077)" font-family="sans-serif" font-size="10px" fill="#000" opacity="1">−130</text><text text-anchor="end" transform="translate(-7,72.23076923076923)" font-family="sans-serif" font-size="10px" fill="#000" opacity="1">−125</text><text text-anchor="end" transform="translate(-7,33.769230769230774)" font-family="sans-serif" font-size="10px" fill="#000" opacity="1">−120</text></g><g class="mark-rule role-axis-domain" pointer-events="none"><line transform="translate(0,200)" x2="0" y2="-200" stroke="#888" stroke-width="1" opacity="1"/></g><g class="mark-text role-axis-title" pointer-events="none"><text text-anchor="middle" transform="translate(-33.5244140625,100) rotate(-90) translate(0,-2)" font-family="sans-serif" font-size="11px" font-weight="bold" fill="#000" opacity="1">Path loss (dBm)</text></g></g><path class="foreground" aria-hidden="true" d="" pointer-events="none" display="none"/></g></g><g class="mark-symbol role-mark layer_0_marks" role="graphics-object" aria-roledescription="symbol mark container"><path aria-label="Distance (m): 0.25; Path loss (dBm): −119.134272419" role="graphics-symbol" aria-roledescription="point" transform="translate(3.75,24.109787839268492)" d="M2.739,0A2.739,2.739,0,1,1,-2.739,0A2.739,2.739,0,1,1,2.739,0" stroke="#4c78a8" stroke-width="2" opacity="0.3"/><path aria-label="Distance (m): 0.25; Path loss (dBm): −118.724982901" role="graphics-symbol" aria-roledescription="point" transform="translate(3.75,20.96140692947084)" d="M2.739,0A2.739,2.739,0,1,1,-2.739,0A2.739,2.739,0,1,1,2.739,0" stroke="#4c78a8" stroke-width="2" opacity="0.3"/><path aria-label="Distance (m): 0.25; Path loss (dBm): −118.130363623" role="graphics-symbol" aria-roledescription="point" transform="translate(3.75,16.387412481361707)" d="M2.739,0A2.739,2.739,0,1,1,-2.739,0A2.739,2.739,0,1,1,2.739,0" stroke="#4c78a8" stroke-width="2" opacity="0.3"/><path aria-label="Distance (m): 0.25; Path loss (dBm): −119.391099774" role="graphics-symbol" aria-roledescription="point" transform="translate(3.75,26.085382876548113)" d="M2.739,0A2.739,2.739,0,1,1,-2.739,0A2.739,2.739,0,1,1,2.739,0" stroke="#4c78a8" stroke-width="2" opacity="0.3"/><path aria-label="Distance (m): 0.25; Path loss (dBm): −119.838717406" role="graphics-symbol" aria-roledescription="point" transform="translate(3.75,29.528595430379756)" d="M2.739,0A2.739,2.739,0,1,1,-2.739,0A2.739,2.739,0,1,1,2.739,0" stroke="#4c78a8" stroke-width="2" opacity="0.3"/><path aria-label="Distance (m): 0.5; Path loss (dBm): −119.654117094" role="graphics-symbol" aria-roledescription="point" transform="translate(7.5,28.108593032278527)" d="M2.739,0A2.739,2.739,0,1,1,-2.739,0A2.739,2.739,0,1,1,2.739,0" stroke="#4c78a8" stroke-width="2" opacity="0.3"/><path aria-label="Distance (m): 0.5; Path loss (dBm): −117.703875389" role="graphics-symbol" aria-roledescription="point" transform="translate(7.5,13.106733763573807)" d="M2.739,0A2.739,2.739,0,1,1,-2.739,0A2.739,2.739,0,1,1,2.739,0" stroke="#4c78a8" stroke-width="2" opacity="0.3"/><path aria-label="Distance (m): 0.5; Path loss (dBm): −118.687969367" role="graphics-symbol" aria-roledescription="point" transform="translate(7.5,20.676687435970777)" d="M2.739,0A2.739,2.739,0,1,1,-2.739,0A2.739,2.739,0,1,1,2.739,0" stroke="#4c78a8" stroke-width="2" opacity="0.3"/><path aria-label="Distance (m): 0.5; Path loss (dBm): −117.442320867" role="graphics-symbol" aria-roledescription="point" transform="translate(7.5,11.09477590216381)" d="M2.739,0A2.739,2.739,0,1,1,-2.739,0A2.739,2.739,0,1,1,2.739,0" stroke="#4c78a8" stroke-width="2" opacity="0.3"/><path aria-label="Distance (m): 0.5; Path loss (dBm): −118.764931041" role="graphics-symbol" aria-roledescription="point" transform="translate(7.5,21.26870031644812)" d="M2.739,0A2.739,2.739,0,1,1,-2.739,0A2.739,2.739,0,1,1,2.739,0" stroke="#4c78a8" stroke-width="2" opacity="0.3"/><path aria-label="Distance (m): 1; Path loss (dBm): −118.827010145" role="graphics-symbol" aria-roledescription="point" transform="translate(15,21.74623188415541)" d="M2.739,0A2.739,2.739,0,1,1,-2.739,0A2.739,2.739,0,1,1,2.739,0" stroke="#4c78a8" stroke-width="2" opacity="0.3"/><path aria-label="Distance (m): 1; Path loss (dBm): −119.308091663" role="graphics-symbol" aria-roledescription="point" transform="translate(15,25.446858942939343)" d="M2.739,0A2.739,2.739,0,1,1,-2.739,0A2.739,2.739,0,1,1,2.739,0" stroke="#4c78a8" stroke-width="2" opacity="0.3"/><path aria-label="Distance (m): 1; Path loss (dBm): −119.25065471" role="graphics-symbol" aria-roledescription="point" transform="translate(15,25.005036233006408)" d="M2.739,0A2.739,2.739,0,1,1,-2.739,0A2.739,2.739,0,1,1,2.739,0" stroke="#4c78a8" stroke-width="2" opacity="0.3"/><path aria-label="Distance (m): 1; Path loss (dBm): −118.805184335" role="graphics-symbol" aria-roledescription="point" transform="translate(15,21.578341040482375)" d="M2.739,0A2.739,2.739,0,1,1,-2.739,0A2.739,2.739,0,1,1,2.739,0" stroke="#4c78a8" stroke-width="2" opacity="0.3"/><path aria-label="Distance (m): 1; Path loss (dBm): −118.724970511" role="graphics-symbol" aria-roledescription="point" transform="translate(15,20.961311624449653)" d="M2.739,0A2.739,2.739,0,1,1,-2.739,0A2.739,2.739,0,1,1,2.739,0" stroke="#4c78a8" stroke-width="2" opacity="0.3"/><path aria-label="Distance (m): 2; Path loss (dBm): −136.947225708" role="graphics-symbol" aria-roledescription="point" transform="translate(30,161.13250544245568)" d="M2.739,0A2.739,2.739,0,1,1,-2.739,0A2.739,2.739,0,1,1,2.739,0" stroke="#4c78a8" stroke-width="2" opacity="0.3"/><path aria-label="Distance (m): 2; Path loss (dBm): −129.529318108" role="graphics-symbol" aria-roledescription="point" transform="translate(30,104.07167775106726)" d="M2.739,0A2.739,2.739,0,1,1,-2.739,0A2.739,2.739,0,1,1,2.739,0" stroke="#4c78a8" stroke-width="2" opacity="0.3"/><path aria-label="Distance (m): 2; Path loss (dBm): −129.747425741" role="graphics-symbol" aria-roledescription="point" transform="translate(30,105.74942877979171)" d="M2.739,0A2.739,2.739,0,1,1,-2.739,0A2.739,2.739,0,1,1,2.739,0" stroke="#4c78a8" stroke-width="2" opacity="0.3"/><path aria-label="Distance (m): 2; Path loss (dBm): −129.099217574" role="graphics-symbol" aria-roledescription="point" transform="translate(30,100.76321210774779)" d="M2.739,0A2.739,2.739,0,1,1,-2.739,0A2.739,2.739,0,1,1,2.739,0" stroke="#4c78a8" stroke-width="2" opacity="0.3"/><path aria-label="Distance (m): 2; Path loss (dBm): −129.184344853" role="graphics-symbol" aria-roledescription="point" transform="translate(30,101.41803732975676)" d="M2.739,0A2.739,2.739,0,1,1,-2.739,0A2.739,2.739,0,1,1,2.739,0" stroke="#4c78a8" stroke-width="2" opacity="0.3"/><path aria-label="Distance (m): 5; Path loss (dBm): −132.781600225" role="graphics-symbol" aria-roledescription="point" transform="translate(75,129.08923250354226)" d="M2.739,0A2.739,2.739,0,1,1,-2.739,0A2.739,2.739,0,1,1,2.739,0" stroke="#4c78a8" stroke-width="2" opacity="0.3"/><path aria-label="Distance (m): 5; Path loss (dBm): −131.642686772" role="graphics-symbol" aria-roledescription="point" transform="translate(75,120.32835978126637)" d="M2.739,0A2.739,2.739,0,1,1,-2.739,0A2.739,2.739,0,1,1,2.739,0" stroke="#4c78a8" stroke-width="2" opacity="0.3"/><path aria-label="Distance (m): 5; Path loss (dBm): −132.280480292" role="graphics-symbol" aria-roledescription="point" transform="translate(75,125.23446378315664)" d="M2.739,0A2.739,2.739,0,1,1,-2.739,0A2.739,2.739,0,1,1,2.739,0" stroke="#4c78a8" stroke-width="2" opacity="0.3"/><path aria-label="Distance (m): 5; Path loss (dBm): −131.454778722" role="graphics-symbol" aria-roledescription="point" transform="translate(75,118.88291324822961)" d="M2.739,0A2.739,2.739,0,1,1,-2.739,0A2.739,2.739,0,1,1,2.739,0" stroke="#4c78a8" stroke-width="2" opacity="0.3"/><path aria-label="Distance (m): 5; Path loss (dBm): −132.570066625" role="graphics-symbol" aria-roledescription="point" transform="translate(75,127.46205096186014)" d="M2.739,0A2.739,2.739,0,1,1,-2.739,0A2.739,2.739,0,1,1,2.739,0" stroke="#4c78a8" stroke-width="2" opacity="0.3"/><path aria-label="Distance (m): 10; Path loss (dBm): −132.726834552" role="graphics-symbol" aria-roledescription="point" transform="translate(150,128.66795809027062)" d="M2.739,0A2.739,2.739,0,1,1,-2.739,0A2.739,2.739,0,1,1,2.739,0" stroke="#4c78a8" stroke-width="2" opacity="0.3"/><path aria-label="Distance (m): 10; Path loss (dBm): −131.679797739" role="graphics-symbol" aria-roledescription="point" transform="translate(150,120.61382875922062)" d="M2.739,0A2.739,2.739,0,1,1,-2.739,0A2.739,2.739,0,1,1,2.739,0" stroke="#4c78a8" stroke-width="2" opacity="0.3"/><path aria-label="Distance (m): 10; Path loss (dBm): −140.061337816" role="graphics-symbol" aria-roledescription="point" transform="translate(150,185.0872139681673)" d="M2.739,0A2.739,2.739,0,1,1,-2.739,0A2.739,2.739,0,1,1,2.739,0" stroke="#4c78a8" stroke-width="2" opacity="0.3"/><path aria-label="Distance (m): 10; Path loss (dBm): −132.235691025" role="graphics-symbol" aria-roledescription="point" transform="translate(150,124.88993096289806)" d="M2.739,0A2.739,2.739,0,1,1,-2.739,0A2.739,2.739,0,1,1,2.739,0" stroke="#4c78a8" stroke-width="2" opacity="0.3"/><path aria-label="Distance (m): 10; Path loss (dBm): −132.694541913" role="graphics-symbol" aria-roledescription="point" transform="translate(150,128.41955317902384)" d="M2.739,0A2.739,2.739,0,1,1,-2.739,0A2.739,2.739,0,1,1,2.739,0" stroke="#4c78a8" stroke-width="2" opacity="0.3"/><path aria-label="Distance (m): 20; Path loss (dBm): −136.772685853" role="graphics-symbol" aria-roledescription="point" transform="translate(300,159.7898911749507)" d="M2.739,0A2.739,2.739,0,1,1,-2.739,0A2.739,2.739,0,1,1,2.739,0" stroke="#4c78a8" stroke-width="2" opacity="0.3"/><path aria-label="Distance (m): 20; Path loss (dBm): −136.978168801" role="graphics-symbol" aria-roledescription="point" transform="translate(300,161.37052923960613)" d="M2.739,0A2.739,2.739,0,1,1,-2.739,0A2.739,2.739,0,1,1,2.739,0" stroke="#4c78a8" stroke-width="2" opacity="0.3"/><path aria-label="Distance (m): 20; Path loss (dBm): −136.899547749" role="graphics-symbol" aria-roledescription="point" transform="translate(300,160.7657519176828)" d="M2.739,0A2.739,2.739,0,1,1,-2.739,0A2.739,2.739,0,1,1,2.739,0" stroke="#4c78a8" stroke-width="2" opacity="0.3"/><path aria-label="Distance (m): 20; Path loss (dBm): −137.125814123" role="graphics-symbol" aria-roledescription="point" transform="translate(300,162.50626248599448)" d="M2.739,0A2.739,2.739,0,1,1,-2.739,0A2.739,2.739,0,1,1,2.739,0" stroke="#4c78a8" stroke-width="2" opacity="0.3"/><path aria-label="Distance (m): 20; Path loss (dBm): −136.884245569" role="graphics-symbol" aria-roledescription="point" transform="translate(300,160.64804284131574)" d="M2.739,0A2.739,2.739,0,1,1,-2.739,0A2.739,2.739,0,1,1,2.739,0" stroke="#4c78a8" stroke-width="2" opacity="0.3"/></g><g class="mark-group role-scope layer_1_pathgroup" role="graphics-object" aria-roledescription="group mark container"><g transform="translate(0,0)"><path class="background" aria-hidden="true" d="M0,0h300v200h-300Z"/><g><g class="mark-line role-mark layer_1_marks" clip-path="url(#clip3)" role="graphics-object" aria-roledescription="line mark container"><path aria-label="Distance (m): 0; Path loss (dBm): Infinity; Function: Reference: α=2, K=-118,5" role="graphics-symbol" aria-roledescription="line mark" d="M1.5,-134.615L3,-88.303L4.5,-61.212L6,-41.991L7.5,-27.082L9,-14.9L10.5,-4.6L12,4.322L13.5,12.191L15,19.231L16.5,25.599L18,31.412L19.5,36.761L21,41.712L22.5,46.322L24,50.634L25.5,54.684L27,58.503L28.5,62.116L30,65.543L31.5,68.803L33,71.911L34.5,74.881L36,77.725L37.5,80.452L39,83.073L40.5,85.594L42,88.024L43.5,90.369L45,92.634L46.5,94.825L48,96.946L49.5,99.002L51,100.997L52.5,102.934L54,104.816L55.5,106.646L57,108.428L58.5,110.164L60,111.855L61.5,113.505L63,115.115L64.5,116.687L66,118.223L67.5,119.725L69,121.194L70.5,122.63L72,124.037L73.5,125.415L75,126.765L76.5,128.088L78,129.385L79.5,130.658L81,131.907L82.5,133.133L84,134.337L85.5,135.519L87,136.681L88.5,137.823L90,138.946L91.5,140.051L93,141.137L94.5,142.206L96,143.258L97.5,144.294L99,145.314L100.5,146.319L102,147.309L103.5,148.284L105,149.246L106.5,150.194L108,151.128L109.5,152.05L111,152.959L112.5,153.856L114,154.741L115.5,155.614L117,156.476L118.5,157.327L120,158.168L121.5,158.998L123,159.818L124.5,160.627L126,161.428L127.5,162.218L129,163L130.5,163.772L132,164.536L133.5,165.291L135,166.037L136.5,166.776L138,167.506L139.5,168.228L141,168.943L142.5,169.65L144,170.349L145.5,171.042L147,171.727L148.5,172.405L150,173.077L151.5,173.742L153,174.4L154.5,175.052L156,175.697L157.5,176.337L159,176.97L160.5,177.598L162,178.219L163.5,178.835L165,179.445L166.5,180.05L168,180.649L169.5,181.243L171,181.832L172.5,182.415L174,182.994L175.5,183.567L177,184.136L178.5,184.7L180,185.259L181.5,185.813L183,186.363L184.5,186.908L186,187.449L187.5,187.986L189,188.519L190.5,189.047L192,189.571L193.5,190.091L195,190.607L196.5,191.119L198,191.627L199.5,192.131L201,192.632L202.5,193.128L204,193.621L205.5,194.111L207,194.597L208.5,195.079L210,195.558L211.5,196.034L213,196.506L214.5,196.975L216,197.44L217.5,197.903L219,198.362L220.5,198.818L222,199.271L223.5,199.721L225,200.168L226.5,200.612L228,201.053L229.5,201.491L231,201.926L232.5,202.359L234,202.788L235.5,203.215L237,203.64L238.5,204.061L240,204.48L241.5,204.896L243,205.31L244.5,205.721L246,206.13L247.5,206.536L249,206.94L250.5,207.341L252,207.74L253.5,208.136L255,208.531L256.5,208.922L258,209.312L259.5,209.699L261,210.084L262.5,210.467L264,210.848L265.5,211.227L267,211.603L268.5,211.977L270,212.35L271.5,212.72L273,213.088L274.5,213.454L276,213.818L277.5,214.18L279,214.54L280.5,214.899L282,215.255L283.5,215.61L285,215.962L286.5,216.313L288,216.662L289.5,217.009L291,217.354L292.5,217.698L294,218.039L295.5,218.379L297,218.718L298.5,219.054" stroke="#f58518" stroke-width="2"/></g></g><path class="foreground" aria-hidden="true" d="" display="none"/></g><g transform="translate(0,0)"><path class="background" aria-hidden="true" d="M0,0h300v200h-300Z"/><g><g class="mark-line role-mark layer_1_marks" clip-path="url(#clip4)" role="graphics-object" aria-roledescription="line mark container"><path aria-label="Distance (m): 0; Path loss (dBm): Infinity; Function: Fitted: α=1,083, K=-123,48" role="graphics-symbol" aria-roledescription="line mark" d="M1.5,-25.769L3,-0.691L4.5,13.979L6,24.387L7.5,32.46L9,39.057L10.5,44.634L12,49.465L13.5,53.727L15,57.538L16.5,60.987L18,64.135L19.5,67.031L21,69.712L22.5,72.208L24,74.543L25.5,76.737L27,78.805L28.5,80.761L30,82.617L31.5,84.382L33,86.065L34.5,87.673L36,89.213L37.5,90.69L39,92.109L40.5,93.474L42,94.79L43.5,96.06L45,97.286L46.5,98.473L48,99.621L49.5,100.735L51,101.815L52.5,102.864L54,103.883L55.5,104.874L57,105.839L58.5,106.779L60,107.695L61.5,108.588L63,109.46L64.5,110.311L66,111.143L67.5,111.956L69,112.751L70.5,113.529L72,114.291L73.5,115.037L75,115.768L76.5,116.485L78,117.187L79.5,117.876L81,118.552L82.5,119.216L84,119.868L85.5,120.509L87,121.138L88.5,121.756L90,122.364L91.5,122.962L93,123.551L94.5,124.13L96,124.699L97.5,125.26L99,125.813L100.5,126.357L102,126.893L103.5,127.421L105,127.942L106.5,128.455L108,128.961L109.5,129.46L111,129.952L112.5,130.438L114,130.917L115.5,131.39L117,131.857L118.5,132.318L120,132.773L121.5,133.222L123,133.666L124.5,134.105L126,134.538L127.5,134.966L129,135.389L130.5,135.808L132,136.221L133.5,136.63L135,137.034L136.5,137.434L138,137.829L139.5,138.221L141,138.607L142.5,138.99L144,139.369L145.5,139.744L147,140.115L148.5,140.483L150,140.846L151.5,141.206L153,141.563L154.5,141.916L156,142.265L157.5,142.611L159,142.954L160.5,143.294L162,143.631L163.5,143.964L165,144.294L166.5,144.622L168,144.946L169.5,145.268L171,145.587L172.5,145.903L174,146.216L175.5,146.527L177,146.834L178.5,147.14L180,147.443L181.5,147.743L183,148.041L184.5,148.336L186,148.629L187.5,148.92L189,149.208L190.5,149.494L192,149.778L193.5,150.059L195,150.339L196.5,150.616L198,150.891L199.5,151.164L201,151.435L202.5,151.704L204,151.971L205.5,152.236L207,152.499L208.5,152.76L210,153.02L211.5,153.277L213,153.533L214.5,153.787L216,154.039L217.5,154.289L219,154.538L220.5,154.785L222,155.03L223.5,155.274L225,155.516L226.5,155.756L228,155.995L229.5,156.232L231,156.468L232.5,156.702L234,156.935L235.5,157.166L237,157.396L238.5,157.624L240,157.851L241.5,158.076L243,158.3L244.5,158.523L246,158.744L247.5,158.964L249,159.183L250.5,159.4L252,159.616L253.5,159.831L255,160.044L256.5,160.257L258,160.467L259.5,160.677L261,160.886L262.5,161.093L264,161.299L265.5,161.504L267,161.708L268.5,161.911L270,162.112L271.5,162.313L273,162.512L274.5,162.71L276,162.908L277.5,163.104L279,163.299L280.5,163.493L282,163.686L283.5,163.878L285,164.068L286.5,164.258L288,164.447L289.5,164.635L291,164.822L292.5,165.008L294,165.193L295.5,165.377L297,165.561L298.5,165.743" stroke="#4c78a8" stroke-width="2"/></g></g><path class="foreground" aria-hidden="true" d="" display="none"/></g></g><g class="mark-group role-legend" role="graphics-symbol" aria-roledescription="legend" aria-label="Symbol legend titled 'Function' for stroke color with 2 values: Fitted: α=1,083, K=-123,48, Reference: α=2, K=-118,5"><g transform="translate(318,0)"><path class="background" aria-hidden="true" d="M0,0h136v40h-136Z" pointer-events="none"/><g><g class="mark-group role-legend-entry"><g transform="translate(0,16)"><path class="background" aria-hidden="true" d="M0,0h0v0h0Z" pointer-events="none"/><g><g class="mark-group role-scope" role="graphics-object" aria-roledescription="group mark container"><g transform="translate(0,0)"><path class="background" aria-hidden="true" d="M0,0h135.1943359375v11h-135.1943359375Z" pointer-events="none" opacity="1"/><g><g class="mark-symbol role-legend-symbol" pointer-events="none"><path transform="translate(6,6)" d="M-5,0L5,0" stroke="#4c78a8" stroke-width="1.5" opacity="1"/></g><g class="mark-text role-legend-label" pointer-events="none"><text text-anchor="start" transform="translate(16,9)" font-family="sans-serif" font-size="10px" fill="#000" opacity="1">Fitted: α=1,083, K=-123,48</text></g></g><path class="foreground" aria-hidden="true" d="" pointer-events="none" display="none"/></g><g transform="translate(0,13)"><path class="background" aria-hidden="true" d="M0,0h135.1943359375v11h-135.1943359375Z" pointer-events="none" opacity="1"/><g><g class="mark-symbol role-legend-symbol" pointer-events="none"><path transform="translate(6,6)" d="M-5,0L5,0" stroke="#f58518" stroke-width="1.5" opacity="1"/></g><g class="mark-text role-legend-label" pointer-events="none"><text text-anchor="start" transform="translate(16,9)" font-family="sans-serif" font-size="10px" fill="#000" opacity="1">Reference: α=2, K=-118,5</text></g></g><path class="foreground" aria-hidden="true" d="" pointer-events="none" display="none"/></g></g></g><path class="foreground" aria-hidden="true" d="" pointer-events="none" display="none"/></g></g><g class="mark-text role-legend-title" pointer-events="none"><text text-anchor="start" transform="translate(0,9)" font-family="sans-serif" font-size="11px" font-weight="bold" fill="#000" opacity="1">Function</text></g></g><path class="foreground" aria-hidden="true" d="" pointer-events="none" display="none"/></g></g></g><path class="foreground" aria-hidden="true" d="" display="none"/></g></g></g><defs><clipPath id="clip3"><rect x="0" y="0" width="300" height="200"/></clipPath><clipPath id="clip4"><rect x="0" y="0" width="300" height="200"/></clipPath></defs></svg>